<svg width="736" height="920" xmlns="http://www.w3.org/2000/svg" xmlns:xlink="http://www.w3.org/1999/xlink" overflow="hidden"><defs><clipPath id="clip0"><rect x="1229" y="461" width="736" height="920"/></clipPath></defs><g clip-path="url(#clip0)" transform="translate(-1229 -461)"><path d="M1262.5 726.502C1262.5 680.109 1300.11 642.5 1346.5 642.5L1682.5 642.5C1728.89 642.5 1766.5 680.109 1766.5 726.502L1766.5 1285.5C1766.5 1331.89 1728.89 1369.5 1682.5 1369.5L1346.5 1369.5C1300.11 1369.5 1262.5 1331.89 1262.5 1285.5Z" stroke="#000000" stroke-width="20.625" stroke-miterlimit="8" fill="#FFFFFF" fill-rule="evenodd"/><path d="M1356 745C1356 735.611 1363.61 728 1373 728L1441 728C1450.39 728 1458 735.611 1458 745L1458 814C1458 823.389 1450.39 831 1441 831L1373 831C1363.61 831 1356 823.389 1356 814Z" fill-rule="evenodd"/><path d="M1571 745C1571 735.611 1578.61 728 1588 728L1656 728C1665.39 728 1673 735.611 1673 745L1673 814C1673 823.389 1665.39 831 1656 831L1588 831C1578.61 831 1571 823.389 1571 814Z" fill-rule="evenodd"/><path d="M1356 885C1356 875.611 1363.61 868 1373 868L1441 868C1450.39 868 1458 875.611 1458 885L1458 954C1458 963.389 1450.39 971 1441 971L1373 971C1363.61 971 1356 963.389 1356 954Z" fill-rule="evenodd"/><path d="M1571 885C1571 875.611 1578.61 868 1588 868L1656 868C1665.39 868 1673 875.611 1673 885L1673 954C1673 963.389 1665.39 971 1656 971L1588 971C1578.61 971 1571 963.389 1571 954Z" fill-rule="evenodd"/><path d="M1356 1025C1356 1015.61 1363.61 1008 1373 1008L1441 1008C1450.39 1008 1458 1015.61 1458 1025L1458 1094C1458 1103.39 1450.39 1111 1441 1111L1373 1111C1363.61 1111 1356 1103.39 1356 1094Z" fill-rule="evenodd"/><path d="M1571 1025C1571 1015.61 1578.61 1008 1588 1008L1656 1008C1665.39 1008 1673 1015.61 1673 1025L1673 1094C1673 1103.39 1665.39 1111 1656 1111L1588 1111C1578.61 1111 1571 1103.39 1571 1094Z" fill-rule="evenodd"/><path d="M1463 1166C1463 1156.61 1470.61 1149 1480 1149L1548 1149C1557.39 1149 1565 1156.61 1565 1166L1565 1309C1565 1318.39 1557.39 1326 1548 1326L1480 1326C1470.61 1326 1463 1318.39 1463 1309Z" fill-rule="evenodd"/><path d="M1229 1314.33C1229 1306.97 1234.97 1301 1242.33 1301L1785.67 1301C1793.03 1301 1799 1306.97 1799 1314.33L1799 1367.67C1799 1375.03 1793.03 1381 1785.67 1381L1242.33 1381C1234.97 1381 1229 1375.03 1229 1367.67Z" fill-rule="evenodd"/><path d="M1737 551.79 1827.79 551.79 1827.79 461 1874.21 461 1874.21 551.79 1965 551.79 1965 600.21 1874.21 600.21 1874.21 691 1827.79 691 1827.79 600.21 1737 600.21Z" fill="#09A4FB" fill-rule="evenodd"/></g></svg>