<svg width="729" height="947" xmlns="http://www.w3.org/2000/svg" xmlns:xlink="http://www.w3.org/1999/xlink" overflow="hidden"><defs><clipPath id="clip0"><rect x="2316" y="446" width="729" height="947"/></clipPath></defs><g clip-path="url(#clip0)" transform="translate(-2316 -446)"><path d="M2348.5 738.502C2348.5 692.109 2386.11 654.5 2432.5 654.5L2768.5 654.5C2814.89 654.5 2852.5 692.109 2852.5 738.502L2852.5 1297.5C2852.5 1343.89 2814.89 1381.5 2768.5 1381.5L2432.5 1381.5C2386.11 1381.5 2348.5 1343.89 2348.5 1297.5Z" stroke="#000000" stroke-width="20.625" stroke-miterlimit="8" fill="#FFFFFF" fill-rule="evenodd"/><path d="M2442 758C2442 748.611 2449.61 741 2459 741L2528 741C2537.39 741 2545 748.611 2545 758L2545 826C2545 835.389 2537.39 843 2528 843L2459 843C2449.61 843 2442 835.389 2442 826Z" fill-rule="evenodd"/><path d="M2657 758C2657 748.611 2664.61 741 2674 741L2742 741C2751.39 741 2759 748.611 2759 758L2759 826C2759 835.389 2751.39 843 2742 843L2674 843C2664.61 843 2657 835.389 2657 826Z" fill-rule="evenodd"/><path d="M2442 898C2442 888.611 2449.61 881 2459 881L2528 881C2537.39 881 2545 888.611 2545 898L2545 965.999C2545 975.388 2537.39 983 2528 983L2459 983C2449.61 983 2442 975.388 2442 965.999Z" fill-rule="evenodd"/><path d="M2657 898C2657 888.611 2664.61 881 2674 881L2742 881C2751.39 881 2759 888.611 2759 898L2759 966C2759 975.389 2751.39 983 2742 983L2674 983C2664.61 983 2657 975.389 2657 966Z" fill-rule="evenodd"/><path d="M2442 1038C2442 1028.61 2449.61 1021 2459 1021L2528 1021C2537.39 1021 2545 1028.61 2545 1038L2545 1106C2545 1115.39 2537.39 1123 2528 1123L2459 1123C2449.61 1123 2442 1115.39 2442 1106Z" fill-rule="evenodd"/><path d="M2657 1038C2657 1028.61 2664.61 1021 2674 1021L2742 1021C2751.39 1021 2759 1028.61 2759 1038L2759 1106C2759 1115.39 2751.39 1123 2742 1123L2674 1123C2664.61 1123 2657 1115.39 2657 1106Z" fill-rule="evenodd"/><path d="M2549 1178C2549 1168.61 2556.61 1161 2566 1161L2634 1161C2643.39 1161 2651 1168.61 2651 1178L2651 1321C2651 1330.39 2643.39 1338 2634 1338L2566 1338C2556.61 1338 2549 1330.39 2549 1321Z" fill-rule="evenodd"/><path d="M2316 1326.33C2316 1318.97 2321.97 1313 2329.33 1313L2871.67 1313C2879.03 1313 2885 1318.97 2885 1326.33L2885 1379.67C2885 1387.03 2879.03 1393 2871.67 1393L2329.33 1393C2321.97 1393 2316 1387.03 2316 1379.67Z" fill-rule="evenodd"/><path d="M2993.65 450.182C2997.27 445.746 3003.8 445.086 3008.24 448.706L3040.36 474.928C3044.8 478.548 3045.46 485.079 3041.84 489.515L2929.49 627.151C2925.87 631.587 2919.34 632.248 2914.91 628.627L2882.78 602.406C2878.35 598.785 2877.69 592.254 2881.31 587.819Z" fill="#09A4FB" fill-rule="evenodd"/><path d="M2923.25 632.971 2873.8 646.295 2876.95 595.185Z" fill="#09A4FB" fill-rule="evenodd"/></g></svg>