<svg width="415" height="413" xmlns="http://www.w3.org/2000/svg" xmlns:xlink="http://www.w3.org/1999/xlink" xml:space="preserve" overflow="hidden"><defs><clipPath id="clip0"><rect x="432" y="153" width="415" height="413"/></clipPath></defs><g clip-path="url(#clip0)" transform="translate(-432 -153)"><path d="M432 191.33C432 170.16 449.163 153 470.334 153L808.666 153C829.837 153 847 170.16 847 191.33L847 344.67C847 365.84 829.837 383 808.666 383L470.334 383C449.163 383 432 365.84 432 344.67Z" stroke="#374146" fill="#374146" fill-rule="evenodd"/><path d="M716.158 425.14C733.467 467.33 713.293 515.57 671.099 532.88 628.905 550.19 580.668 530.01 563.359 487.82 555.047 467.55 555.125 444.82 563.575 424.62Z" stroke="#374146" fill="#374146" fill-rule="evenodd"/><path d="M722.541 455.49C732.494 501.21 703.5 546.34 657.781 556.29 612.062 566.25 566.93 537.25 556.977 491.53 554.441 479.89 554.392 467.84 556.831 456.17" stroke="#374146" stroke-width="13.75" stroke-miterlimit="8" fill="#374146" fill-rule="evenodd"/><path d="M0 0 0.000360892 71.1055" stroke="#374146" stroke-width="13.75" stroke-miterlimit="8" fill="#374146" fill-rule="evenodd" transform="matrix(1 0 0 -1 556 479.11)"/><path d="M0 0 0.000360892 71.1055" stroke="#374146" stroke-width="13.75" stroke-miterlimit="8" fill="#374146" fill-rule="evenodd" transform="matrix(1 0 0 -1 725 480.11)"/></g></svg>