<svg width="415" height="320" xmlns="http://www.w3.org/2000/svg" xmlns:xlink="http://www.w3.org/1999/xlink" overflow="hidden"><defs><clipPath id="clip0"><rect x="427" y="455" width="415" height="320"/></clipPath></defs><g clip-path="url(#clip0)" transform="translate(-427 -455)"><path d="M543 546.5C543 495.966 584.19 455 635 455 685.81 455 727 495.966 727 546.5 727 597.034 685.81 638 635 638 584.19 638 543 597.034 543 546.5Z" fill="#86919C" fill-rule="evenodd"/><path d="M465.139 546 520.084 546 520.084 546C520.084 609.237 571.31 660.501 634.5 660.501 697.69 660.501 748.916 609.237 748.916 546L748.916 546 803.86 546C824.924 546 842 563.088 842 584.167L842 736.833C842 757.912 824.924 775 803.86 775L465.139 775C444.076 775 427 757.912 427 736.833L427 584.167C427 563.088 444.076 546 465.139 546Z" fill="#86919C" fill-rule="evenodd"/></g></svg>