<svg width="1430" height="1419" xmlns="http://www.w3.org/2000/svg" xmlns:xlink="http://www.w3.org/1999/xlink" xml:space="preserve" overflow="hidden"><defs><clipPath id="clip0"><rect x="1071" y="455" width="1430" height="1419"/></clipPath></defs><g clip-path="url(#clip0)" transform="translate(-1071 -455)"><path d="M1073.3 588.791C1073.3 515.985 1132.27 456.969 1205.02 456.969L2367.58 456.969C2440.32 456.969 2499.3 515.985 2499.3 588.791L2499.3 1116.15C2499.3 1188.95 2440.32 1247.97 2367.58 1247.97L1205.02 1247.97C1132.27 1247.97 1073.3 1188.95 1073.3 1116.15Z" stroke="#B6C1FE" stroke-width="3.4375" stroke-miterlimit="8" fill="#B6C1FE" fill-rule="evenodd"/><path d="M2049.98 1392.76C2109.5 1537.62 2040.12 1703.25 1895.03 1762.68 1749.94 1822.12 1584.06 1752.83 1524.54 1607.97 1495.96 1538.37 1496.23 1460.33 1525.29 1390.97Z" stroke="#B6C1FE" stroke-width="3.4375" stroke-miterlimit="8" fill="#B6C1FE" fill-rule="evenodd"/><path d="M2071.57 1496.97C2105.81 1654.03 2006.06 1809.06 1848.77 1843.24 1691.48 1877.46 1536.21 1777.83 1501.97 1620.78 1493.24 1580.79 1493.08 1539.39 1501.47 1499.31" stroke="#B6C1FE" stroke-width="47.2657" stroke-miterlimit="8" fill="#B6C1FE" fill-rule="evenodd"/><path d="M41.3198 0.0918676 42.3194 244.092" stroke="#B6C1FE" stroke-width="47.2657" stroke-miterlimit="8" fill="#B6C1FE" fill-rule="evenodd" transform="matrix(1 0 0 -1 1357.5 1587.5)"/><path d="M97.6346 0.0922279 98.6343 244.093" stroke="#B6C1FE" stroke-width="47.2657" stroke-miterlimit="8" fill="#B6C1FE" fill-rule="evenodd" transform="matrix(1 0 0 -1 1746.5 1598.5)"/></g></svg>