<svg width="415" height="413" xmlns="http://www.w3.org/2000/svg" xmlns:xlink="http://www.w3.org/1999/xlink" overflow="hidden"><defs><clipPath id="clip0"><rect x="561" y="1470" width="415" height="413"/></clipPath></defs><g clip-path="url(#clip0)" transform="translate(-561 -1470)"><path d="M561 1508.33C561 1487.16 578.163 1470 599.334 1470L937.666 1470C958.837 1470 976 1487.16 976 1508.33L976 1661.67C976 1682.84 958.837 1700 937.666 1700L599.334 1700C578.163 1700 561 1682.84 561 1661.67Z" fill="#86919C" fill-rule="evenodd"/><path d="M845.158 1742.14C862.467 1784.33 842.293 1832.57 800.099 1849.88 757.905 1867.19 709.668 1847.01 692.359 1804.82 684.047 1784.55 684.125 1761.82 692.575 1741.62Z" fill="#86919C" fill-rule="evenodd"/><path d="M851.541 1772.49C861.494 1818.21 832.5 1863.34 786.781 1873.29 741.062 1883.25 695.93 1854.25 685.977 1808.53 683.441 1796.89 683.392 1784.84 685.831 1773.17" stroke="#86919C" stroke-width="13.75" stroke-miterlimit="8" fill="none" fill-rule="evenodd"/><path d="M0 0 0.000360892 71.1055" stroke="#86919C" stroke-width="13.75" stroke-miterlimit="8" fill="none" fill-rule="evenodd" transform="matrix(1 0 0 -1 685 1796.11)"/><path d="M0 0 0.000360892 71.1055" stroke="#86919C" stroke-width="13.75" stroke-miterlimit="8" fill="none" fill-rule="evenodd" transform="matrix(1 0 0 -1 854 1797.11)"/></g></svg>