<svg width="616" height="589" xmlns="http://www.w3.org/2000/svg" xmlns:xlink="http://www.w3.org/1999/xlink" overflow="hidden"><defs><clipPath id="clip0"><rect x="1123" y="1286" width="616" height="589"/></clipPath></defs><g clip-path="url(#clip0)" transform="translate(-1123 -1286)"><path d="M1123 1501.17C1123 1480.09 1140.09 1463 1161.17 1463L1500.83 1463C1521.91 1463 1539 1480.09 1539 1501.17L1539 1653.83C1539 1674.91 1521.91 1692 1500.83 1692L1161.17 1692C1140.09 1692 1123 1674.91 1123 1653.83Z" fill="#FFFFFF" fill-rule="evenodd"/><path d="M1407.39 1734.73C1424.7 1776.92 1404.53 1825.16 1362.33 1842.47 1320.14 1859.78 1271.9 1839.61 1254.59 1797.41 1246.28 1777.15 1246.36 1754.41 1254.81 1734.21Z" fill="#FFFFFF" fill-rule="evenodd"/><path d="M1413.77 1765.08C1423.73 1810.8 1394.73 1855.93 1349.01 1865.89 1303.29 1875.84 1258.16 1846.85 1248.21 1801.13 1245.67 1789.48 1245.62 1777.43 1248.06 1765.77" stroke="#FFFFFF" stroke-width="13.75" stroke-miterlimit="8" fill="none" fill-rule="evenodd"/><path d="M0 0 0.000360892 71.1055" stroke="#FFFFFF" stroke-width="13.75" stroke-miterlimit="8" fill="none" fill-rule="evenodd" transform="matrix(1 0 0 -1 1247 1789.11)"/><path d="M0 0 0.000360892 71.1055" stroke="#FFFFFF" stroke-width="13.75" stroke-miterlimit="8" fill="none" fill-rule="evenodd" transform="matrix(1 0 0 -1 1416 1790.11)"/><path d="M1511 1376.79 1601.79 1376.79 1601.79 1286 1648.21 1286 1648.21 1376.79 1739 1376.79 1739 1424.21 1648.21 1424.21 1648.21 1515 1601.79 1515 1601.79 1424.21 1511 1424.21Z" fill="#FFFFFF" fill-rule="evenodd"/></g></svg>