<svg width="415" height="413" xmlns="http://www.w3.org/2000/svg" xmlns:xlink="http://www.w3.org/1999/xlink" overflow="hidden"><defs><clipPath id="clip0"><rect x="1096" y="1461" width="415" height="413"/></clipPath></defs><g clip-path="url(#clip0)" transform="translate(-1096 -1461)"><path d="M1096 1499.33C1096 1478.16 1113.16 1461 1134.33 1461L1472.67 1461C1493.84 1461 1511 1478.16 1511 1499.33L1511 1652.67C1511 1673.84 1493.84 1691 1472.67 1691L1134.33 1691C1113.16 1691 1096 1673.84 1096 1652.67Z" fill="#FFFFFF" fill-rule="evenodd"/><path d="M1380.17 1733.16C1397.48 1775.35 1377.3 1823.59 1335.11 1840.9 1292.92 1858.21 1244.68 1838.04 1227.37 1795.84 1219.06 1775.58 1219.14 1752.84 1227.59 1732.64Z" fill="#FFFFFF" fill-rule="evenodd"/><path d="M1386.55 1763.51C1396.51 1809.23 1367.51 1854.36 1321.79 1864.32 1276.07 1874.27 1230.94 1845.28 1220.99 1799.56 1218.45 1787.91 1218.4 1775.86 1220.84 1764.2" stroke="#FFFFFF" stroke-width="13.75" stroke-miterlimit="8" fill="none" fill-rule="evenodd"/><path d="M0 0 0.000360892 71.1055" stroke="#FFFFFF" stroke-width="13.75" stroke-miterlimit="8" fill="none" fill-rule="evenodd" transform="matrix(1 0 0 -1 1220 1787.11)"/><path d="M0 0 0.000360892 71.1055" stroke="#FFFFFF" stroke-width="13.75" stroke-miterlimit="8" fill="none" fill-rule="evenodd" transform="matrix(1 0 0 -1 1389 1788.11)"/></g></svg>