<svg width="1334" height="627" xmlns="http://www.w3.org/2000/svg" xmlns:xlink="http://www.w3.org/1999/xlink" overflow="hidden"><defs><clipPath id="clip0"><rect x="2782" y="1294" width="1334" height="627"/></clipPath></defs><g clip-path="url(#clip0)" transform="translate(-2782 -1294)"><path d="M2949.5 1556.67C2949.5 1535.59 2966.59 1518.5 2987.67 1518.5L3814.33 1518.5C3835.41 1518.5 3852.5 1535.59 3852.5 1556.67L3852.5 1709.33C3852.5 1730.41 3835.41 1747.5 3814.33 1747.5L2987.67 1747.5C2966.59 1747.5 2949.5 1730.41 2949.5 1709.33Z" stroke="#FFFFFF" stroke-width="4.58333" stroke-miterlimit="8" fill="#FFFFFF" fill-rule="evenodd"/><path d="M2922.42 1709.31C2880.23 1726.61 2831.99 1706.44 2814.68 1664.25 2797.37 1622.05 2817.55 1573.81 2859.74 1556.51 2880 1548.19 2902.74 1548.27 2922.94 1556.72Z" stroke="#FFFFFF" stroke-width="4.58333" stroke-miterlimit="8" fill="#FFFFFF" fill-rule="evenodd"/><path d="M2892.07 1715.69C2846.35 1725.64 2801.22 1696.65 2791.27 1650.93 2781.31 1605.21 2810.31 1560.08 2856.03 1550.12 2867.67 1547.59 2879.72 1547.54 2891.39 1549.98" stroke="#FFFFFF" stroke-width="13.75" stroke-miterlimit="8" fill="none" fill-rule="evenodd"/><path d="M0 0 0.000360892 71.1055" stroke="#FFFFFF" stroke-width="13.75" stroke-miterlimit="8" fill="none" fill-rule="evenodd" transform="matrix(6.12323e-17 1 1 -6.12323e-17 2868 1549)"/><path d="M0 0 0.000360892 71.1055" stroke="#FFFFFF" stroke-width="13.75" stroke-miterlimit="8" fill="none" fill-rule="evenodd" transform="matrix(6.12323e-17 1 1 -6.12323e-17 2867 1718)"/><path d="M3476.72 1780.54C3494.03 1822.74 3473.85 1870.97 3431.66 1888.28 3389.47 1905.59 3341.23 1885.42 3323.92 1843.22 3315.61 1822.96 3315.69 1800.23 3324.14 1780.02Z" stroke="#FFFFFF" stroke-width="4.58333" stroke-miterlimit="8" fill="#FFFFFF" fill-rule="evenodd"/><path d="M3483.1 1810.9C3493.06 1856.61 3464.06 1901.75 3418.34 1911.7 3372.62 1921.65 3327.49 1892.66 3317.54 1846.94 3315 1835.29 3314.95 1823.24 3317.39 1811.58" stroke="#FFFFFF" stroke-width="13.75" stroke-miterlimit="8" fill="none" fill-rule="evenodd"/><path d="M0 0 0.000360892 71.1055" stroke="#FFFFFF" stroke-width="13.75" stroke-miterlimit="8" fill="none" fill-rule="evenodd" transform="matrix(1 0 0 -1 3316 1835.11)"/><path d="M0 0 0.000360892 71.1055" stroke="#FFFFFF" stroke-width="13.75" stroke-miterlimit="8" fill="none" fill-rule="evenodd" transform="matrix(1 0 0 -1 3485 1836.11)"/><path d="M3876.32 1559.41C3918.52 1542.1 3966.75 1562.28 3984.06 1604.47 4001.37 1646.66 3981.2 1694.9 3939 1712.21 3918.74 1720.52 3896.01 1720.44 3875.8 1711.99Z" stroke="#FFFFFF" stroke-width="4.58333" stroke-miterlimit="8" fill="#FFFFFF" fill-rule="evenodd"/><path d="M3906.68 1553.03C3952.4 1543.07 3997.53 1572.07 4007.48 1617.79 4017.43 1663.51 3988.44 1708.64 3942.72 1718.59 3931.07 1721.13 3919.02 1721.18 3907.36 1718.74" stroke="#FFFFFF" stroke-width="13.75" stroke-miterlimit="8" fill="none" fill-rule="evenodd"/><path d="M0 0 0.000360892 71.1055" stroke="#FFFFFF" stroke-width="13.75" stroke-miterlimit="8" fill="none" fill-rule="evenodd" transform="matrix(-1.83697e-16 -1 -1 1.83697e-16 3931.11 1720)"/><path d="M0 0 0.000360892 71.1055" stroke="#FFFFFF" stroke-width="13.75" stroke-miterlimit="8" fill="none" fill-rule="evenodd" transform="matrix(-1.83697e-16 -1 -1 1.83697e-16 3931.11 1551)"/><path d="M3324.16 1485.84C3306.86 1443.64 3327.03 1395.4 3369.22 1378.1 3411.42 1360.79 3459.65 1380.96 3476.96 1423.16 3485.28 1443.42 3485.2 1466.15 3476.75 1486.36Z" stroke="#FFFFFF" stroke-width="4.58333" stroke-miterlimit="8" fill="#FFFFFF" fill-rule="evenodd"/><path d="M3317.78 1455.48C3307.83 1409.76 3336.82 1364.63 3382.54 1354.68 3428.26 1344.73 3473.39 1373.72 3483.35 1419.44 3485.88 1431.08 3485.93 1443.13 3483.49 1454.8" stroke="#FFFFFF" stroke-width="13.75" stroke-miterlimit="8" fill="none" fill-rule="evenodd"/><path d="M0 0 0.000360892 71.1055" stroke="#FFFFFF" stroke-width="13.75" stroke-miterlimit="8" fill="none" fill-rule="evenodd" transform="matrix(-1 1.22465e-16 1.22465e-16 1 3485 1432)"/><path d="M0 0 0.000360892 71.1055" stroke="#FFFFFF" stroke-width="13.75" stroke-miterlimit="8" fill="none" fill-rule="evenodd" transform="matrix(-1 1.22465e-16 1.22465e-16 1 3316 1431)"/><path d="M3207.74 1780.54C3225.04 1822.74 3204.87 1870.97 3162.68 1888.28 3120.48 1905.59 3072.25 1885.42 3054.94 1843.22 3046.62 1822.96 3046.7 1800.23 3055.15 1780.02Z" stroke="#FFFFFF" stroke-width="4.58333" stroke-miterlimit="8" fill="#FFFFFF" fill-rule="evenodd"/><path d="M3214.12 1810.9C3224.07 1856.61 3195.08 1901.75 3149.36 1911.7 3103.64 1921.65 3058.51 1892.66 3048.55 1846.94 3046.02 1835.29 3045.97 1823.24 3048.41 1811.58" stroke="#FFFFFF" stroke-width="13.75" stroke-miterlimit="8" fill="none" fill-rule="evenodd"/><path d="M0 0 0.000360892 71.1055" stroke="#FFFFFF" stroke-width="13.75" stroke-miterlimit="8" fill="none" fill-rule="evenodd" transform="matrix(1 0 0 -1 3047 1835.11)"/><path d="M0 0 0.000360892 71.1055" stroke="#FFFFFF" stroke-width="13.75" stroke-miterlimit="8" fill="none" fill-rule="evenodd" transform="matrix(1 0 0 -1 3216 1836.11)"/><path d="M3055.18 1485.84C3037.87 1443.64 3058.05 1395.4 3100.24 1378.1 3142.43 1360.79 3190.67 1380.96 3207.98 1423.16 3216.29 1443.42 3216.21 1466.15 3207.76 1486.36Z" stroke="#FFFFFF" stroke-width="4.58333" stroke-miterlimit="8" fill="#FFFFFF" fill-rule="evenodd"/><path d="M3048.8 1455.48C3038.84 1409.76 3067.84 1364.63 3113.56 1354.68 3159.28 1344.73 3204.41 1373.72 3214.36 1419.44 3216.9 1431.08 3216.95 1443.13 3214.51 1454.8" stroke="#FFFFFF" stroke-width="13.75" stroke-miterlimit="8" fill="none" fill-rule="evenodd"/><path d="M0 0 0.000360892 71.1055" stroke="#FFFFFF" stroke-width="13.75" stroke-miterlimit="8" fill="none" fill-rule="evenodd" transform="matrix(-1 1.22465e-16 1.22465e-16 1 3216 1432)"/><path d="M0 0 0.000360892 71.1055" stroke="#FFFFFF" stroke-width="13.75" stroke-miterlimit="8" fill="none" fill-rule="evenodd" transform="matrix(-1 1.22465e-16 1.22465e-16 1 3047 1431)"/><path d="M3742.99 1780.54C3760.3 1822.74 3740.13 1870.97 3697.93 1888.28 3655.74 1905.59 3607.5 1885.42 3590.19 1843.22 3581.88 1822.96 3581.96 1800.23 3590.41 1780.02Z" stroke="#FFFFFF" stroke-width="4.58333" stroke-miterlimit="8" fill="#FFFFFF" fill-rule="evenodd"/><path d="M3749.38 1810.9C3759.33 1856.61 3730.33 1901.75 3684.61 1911.7 3638.9 1921.65 3593.76 1892.66 3583.81 1846.94 3581.28 1835.29 3581.23 1823.24 3583.66 1811.58" stroke="#FFFFFF" stroke-width="13.75" stroke-miterlimit="8" fill="none" fill-rule="evenodd"/><path d="M0 0 0.000360892 71.1055" stroke="#FFFFFF" stroke-width="13.75" stroke-miterlimit="8" fill="none" fill-rule="evenodd" transform="matrix(1 0 0 -1 3582 1835.11)"/><path d="M0 0 0.000360892 71.1055" stroke="#FFFFFF" stroke-width="13.75" stroke-miterlimit="8" fill="none" fill-rule="evenodd" transform="matrix(1 0 0 -1 3752 1836.11)"/><path d="M3590.44 1485.84C3573.13 1443.64 3593.3 1395.4 3635.5 1378.1 3677.69 1360.79 3725.93 1380.96 3743.24 1423.16 3751.55 1443.42 3751.47 1466.15 3743.02 1486.36Z" stroke="#FFFFFF" stroke-width="4.58333" stroke-miterlimit="8" fill="#FFFFFF" fill-rule="evenodd"/><path d="M3584.05 1455.48C3574.1 1409.76 3603.09 1364.63 3648.81 1354.68 3694.53 1344.73 3739.67 1373.72 3749.62 1419.44 3752.15 1431.08 3752.2 1443.13 3749.76 1454.8" stroke="#FFFFFF" stroke-width="13.75" stroke-miterlimit="8" fill="none" fill-rule="evenodd"/><path d="M0 0 0.000360892 71.1055" stroke="#FFFFFF" stroke-width="13.75" stroke-miterlimit="8" fill="none" fill-rule="evenodd" transform="matrix(-1 1.22465e-16 1.22465e-16 1 3751 1432)"/><path d="M0 0 0.000360892 71.1055" stroke="#FFFFFF" stroke-width="13.75" stroke-miterlimit="8" fill="none" fill-rule="evenodd" transform="matrix(-1 1.22465e-16 1.22465e-16 1 3582 1431)"/><path d="M3888 1384.79 3978.79 1384.79 3978.79 1294 4025.21 1294 4025.21 1384.79 4116 1384.79 4116 1432.21 4025.21 1432.21 4025.21 1523 3978.79 1523 3978.79 1432.21 3888 1432.21Z" fill="#09A4FB" fill-rule="evenodd"/></g></svg>