<svg width="1235" height="576" xmlns="http://www.w3.org/2000/svg" xmlns:xlink="http://www.w3.org/1999/xlink" overflow="hidden"><defs><clipPath id="clip0"><rect x="1755" y="1324" width="1235" height="576"/></clipPath></defs><g clip-path="url(#clip0)" transform="translate(-1755 -1324)"><path d="M1922 1535.17C1922 1514.09 1939.09 1497 1960.17 1497L2787.83 1497C2808.91 1497 2826 1514.09 2826 1535.17L2826 1687.83C2826 1708.91 2808.91 1726 2787.83 1726L1960.17 1726C1939.09 1726 1922 1708.91 1922 1687.83Z" fill="#86919C" fill-rule="evenodd"/><path d="M1895.94 1688.28C1853.75 1705.58 1805.51 1685.41 1788.2 1643.22 1770.89 1601.02 1791.07 1552.79 1833.26 1535.48 1853.53 1527.16 1876.26 1527.24 1896.46 1535.69Z" fill="#86919C" fill-rule="evenodd"/><path d="M1865.59 1694.66C1819.87 1704.61 1774.74 1675.62 1764.79 1629.9 1754.83 1584.18 1783.83 1539.05 1829.55 1529.09 1841.19 1526.56 1853.24 1526.51 1864.91 1528.95" stroke="#86919C" stroke-width="13.75" stroke-miterlimit="8" fill="none" fill-rule="evenodd"/><path d="M0 0 0.000360892 71.1055" stroke="#86919C" stroke-width="13.75" stroke-miterlimit="8" fill="none" fill-rule="evenodd" transform="matrix(6.12323e-17 1 1 -6.12323e-17 1842 1528)"/><path d="M0 0 0.000360892 71.1055" stroke="#86919C" stroke-width="13.75" stroke-miterlimit="8" fill="none" fill-rule="evenodd" transform="matrix(6.12323e-17 1 1 -6.12323e-17 1841 1697)"/><path d="M2450.24 1759.51C2467.55 1801.71 2447.38 1849.94 2405.18 1867.25 2362.99 1884.56 2314.75 1864.39 2297.44 1822.19 2289.13 1801.93 2289.21 1779.2 2297.66 1758.99Z" fill="#86919C" fill-rule="evenodd"/><path d="M2456.62 1789.87C2466.58 1835.59 2437.58 1880.72 2391.86 1890.67 2346.14 1900.62 2301.01 1871.63 2291.06 1825.91 2288.52 1814.26 2288.47 1802.21 2290.91 1790.55" stroke="#86919C" stroke-width="13.75" stroke-miterlimit="8" fill="none" fill-rule="evenodd"/><path d="M0 0 0.000360892 71.1055" stroke="#86919C" stroke-width="13.75" stroke-miterlimit="8" fill="none" fill-rule="evenodd" transform="matrix(1 0 0 -1 2290 1814.11)"/><path d="M0 0 0.000360892 71.1055" stroke="#86919C" stroke-width="13.75" stroke-miterlimit="8" fill="none" fill-rule="evenodd" transform="matrix(1 0 0 -1 2459 1815.11)"/><path d="M2849.84 1538.38C2892.04 1521.07 2940.27 1541.25 2957.58 1583.44 2974.89 1625.63 2954.72 1673.87 2912.52 1691.18 2892.26 1699.49 2869.53 1699.41 2849.32 1690.96Z" fill="#86919C" fill-rule="evenodd"/><path d="M2880.2 1532C2925.92 1522.04 2971.05 1551.04 2981 1596.76 2990.95 1642.48 2961.96 1687.61 2916.24 1697.56 2904.6 1700.1 2892.55 1700.15 2880.88 1697.71" stroke="#86919C" stroke-width="13.75" stroke-miterlimit="8" fill="none" fill-rule="evenodd"/><path d="M0 0 0.000360892 71.1055" stroke="#86919C" stroke-width="13.75" stroke-miterlimit="8" fill="none" fill-rule="evenodd" transform="matrix(-1.83697e-16 -1 -1 1.83697e-16 2904.11 1699)"/><path d="M0 0 0.000360892 71.1055" stroke="#86919C" stroke-width="13.75" stroke-miterlimit="8" fill="none" fill-rule="evenodd" transform="matrix(-1.83697e-16 -1 -1 1.83697e-16 2905.11 1530)"/><path d="M2297.69 1464.81C2280.38 1422.61 2300.55 1374.38 2342.74 1357.07 2384.94 1339.76 2433.18 1359.93 2450.48 1402.13 2458.8 1422.39 2458.72 1445.12 2450.27 1465.33Z" fill="#86919C" fill-rule="evenodd"/><path d="M2291.3 1434.45C2281.35 1388.73 2310.34 1343.6 2356.06 1333.65 2401.78 1323.7 2446.91 1352.69 2456.87 1398.41 2459.4 1410.05 2459.45 1422.1 2457.01 1433.77" stroke="#86919C" stroke-width="13.75" stroke-miterlimit="8" fill="none" fill-rule="evenodd"/><path d="M0 0 0.000360892 71.1055" stroke="#86919C" stroke-width="13.75" stroke-miterlimit="8" fill="none" fill-rule="evenodd" transform="matrix(-1 1.22465e-16 1.22465e-16 1 2458 1410)"/><path d="M0 0 0.000360892 71.1055" stroke="#86919C" stroke-width="13.75" stroke-miterlimit="8" fill="none" fill-rule="evenodd" transform="matrix(-1 1.22465e-16 1.22465e-16 1 2289 1410)"/><path d="M2181.26 1759.51C2198.57 1801.71 2178.39 1849.94 2136.2 1867.25 2094 1884.56 2045.77 1864.39 2028.46 1822.19 2020.15 1801.93 2020.22 1779.2 2028.67 1758.99Z" fill="#86919C" fill-rule="evenodd"/><path d="M2187.64 1789.87C2197.59 1835.59 2168.6 1880.72 2122.88 1890.67 2077.16 1900.62 2032.03 1871.63 2022.07 1825.91 2019.54 1814.26 2019.49 1802.21 2021.93 1790.55" stroke="#86919C" stroke-width="13.75" stroke-miterlimit="8" fill="none" fill-rule="evenodd"/><path d="M0 0 0.000360892 71.1055" stroke="#86919C" stroke-width="13.75" stroke-miterlimit="8" fill="none" fill-rule="evenodd" transform="matrix(1 0 0 -1 2021 1814.11)"/><path d="M0 0 0.000360892 71.1055" stroke="#86919C" stroke-width="13.75" stroke-miterlimit="8" fill="none" fill-rule="evenodd" transform="matrix(1 0 0 -1 2190 1815.11)"/><path d="M2028.7 1464.81C2011.39 1422.61 2031.57 1374.38 2073.76 1357.07 2115.96 1339.76 2164.19 1359.93 2181.5 1402.13 2189.81 1422.39 2189.74 1445.12 2181.28 1465.33Z" fill="#86919C" fill-rule="evenodd"/><path d="M2022.32 1434.45C2012.37 1388.73 2041.36 1343.6 2087.08 1333.65 2132.8 1323.7 2177.93 1352.69 2187.88 1398.41 2190.42 1410.05 2190.47 1422.1 2188.03 1433.77" stroke="#86919C" stroke-width="13.75" stroke-miterlimit="8" fill="none" fill-rule="evenodd"/><path d="M0 0 0.000360892 71.1055" stroke="#86919C" stroke-width="13.75" stroke-miterlimit="8" fill="none" fill-rule="evenodd" transform="matrix(-1 1.22465e-16 1.22465e-16 1 2189 1410)"/><path d="M0 0 0.000360892 71.1055" stroke="#86919C" stroke-width="13.75" stroke-miterlimit="8" fill="none" fill-rule="evenodd" transform="matrix(-1 1.22465e-16 1.22465e-16 1 2020 1410)"/><path d="M2716.51 1759.51C2733.82 1801.71 2713.65 1849.94 2671.45 1867.25 2629.26 1884.56 2581.02 1864.39 2563.71 1822.19 2555.4 1801.93 2555.48 1779.2 2563.93 1758.99Z" fill="#86919C" fill-rule="evenodd"/><path d="M2722.9 1789.87C2732.85 1835.59 2703.85 1880.72 2658.14 1890.67 2612.42 1900.62 2567.28 1871.63 2557.33 1825.91 2554.8 1814.26 2554.75 1802.21 2557.19 1790.55" stroke="#86919C" stroke-width="13.75" stroke-miterlimit="8" fill="none" fill-rule="evenodd"/><path d="M0 0 0.000360892 71.1055" stroke="#86919C" stroke-width="13.75" stroke-miterlimit="8" fill="none" fill-rule="evenodd" transform="matrix(1 0 0 -1 2556 1814.11)"/><path d="M0 0 0.000360892 71.1055" stroke="#86919C" stroke-width="13.75" stroke-miterlimit="8" fill="none" fill-rule="evenodd" transform="matrix(1 0 0 -1 2725 1815.11)"/><path d="M2563.96 1464.81C2546.65 1422.61 2566.82 1374.38 2609.02 1357.07 2651.21 1339.76 2699.45 1359.93 2716.76 1402.13 2725.07 1422.39 2724.99 1445.12 2716.54 1465.33Z" fill="#86919C" fill-rule="evenodd"/><path d="M2557.57 1434.45C2547.62 1388.73 2576.62 1343.6 2622.34 1333.65 2668.05 1323.7 2713.19 1352.69 2723.14 1398.41 2725.67 1410.05 2725.72 1422.1 2723.29 1433.77" stroke="#86919C" stroke-width="13.75" stroke-miterlimit="8" fill="none" fill-rule="evenodd"/><path d="M0 0 0.000360892 71.1055" stroke="#86919C" stroke-width="13.75" stroke-miterlimit="8" fill="none" fill-rule="evenodd" transform="matrix(-1 1.22465e-16 1.22465e-16 1 2725 1410)"/><path d="M0 0 0.000360892 71.1055" stroke="#86919C" stroke-width="13.75" stroke-miterlimit="8" fill="none" fill-rule="evenodd" transform="matrix(-1 1.22465e-16 1.22465e-16 1 2555 1410)"/></g></svg>