<svg width="1819" height="1819" xmlns="http://www.w3.org/2000/svg" xmlns:xlink="http://www.w3.org/1999/xlink" overflow="hidden"><defs><clipPath id="clip0"><rect x="1411" y="329" width="1819" height="1819"/></clipPath></defs><g clip-path="url(#clip0)" transform="translate(-1411 -329)"><path d="M1411 632.173C1411 464.735 1546.74 329 1714.17 329L2926.82 329C3094.26 329 3230 464.735 3230 632.173L3230 1844.83C3230 2012.27 3094.26 2148 2926.82 2148L1714.17 2148C1546.74 2148 1411 2012.27 1411 1844.83Z" fill="#BFCBD6" fill-rule="evenodd"/><path d="M1870 1160.33C1870 1139.16 1887.16 1122 1908.33 1122L2735.67 1122C2756.84 1122 2774 1139.16 2774 1160.33L2774 1313.67C2774 1334.84 2756.84 1352 2735.67 1352L1908.33 1352C1887.16 1352 1870 1334.84 1870 1313.67Z" fill="#86919C" fill-rule="evenodd"/><path d="M1843.87 1313.62C1801.67 1330.92 1753.44 1310.75 1736.13 1268.56 1718.82 1226.36 1738.99 1178.13 1781.19 1160.82 1801.45 1152.5 1824.18 1152.58 1844.39 1161.03Z" fill="#86919C" fill-rule="evenodd"/><path d="M1813.51 1320C1767.79 1329.95 1722.66 1300.96 1712.71 1255.24 1702.76 1209.52 1731.75 1164.39 1777.47 1154.43 1789.12 1151.9 1801.17 1151.85 1812.83 1154.29" stroke="#86919C" stroke-width="13.75" stroke-miterlimit="8" fill="none" fill-rule="evenodd"/><path d="M0 0 0.000360892 71.1055" stroke="#86919C" stroke-width="13.75" stroke-miterlimit="8" fill="none" fill-rule="evenodd" transform="matrix(6.12323e-17 1 1 -6.12323e-17 1790 1153)"/><path d="M0 0 0.000360892 71.1055" stroke="#86919C" stroke-width="13.75" stroke-miterlimit="8" fill="none" fill-rule="evenodd" transform="matrix(6.12323e-17 1 1 -6.12323e-17 1789 1322)"/><path d="M2398.16 1384.85C2415.47 1427.05 2395.3 1475.28 2353.1 1492.59 2310.91 1509.9 2262.67 1489.73 2245.36 1447.53 2237.05 1427.27 2237.13 1404.54 2245.58 1384.33Z" fill="#86919C" fill-rule="evenodd"/><path d="M2404.55 1415.21C2414.5 1460.93 2385.51 1506.06 2339.79 1516.01 2294.07 1525.96 2248.94 1496.97 2238.98 1451.25 2236.45 1439.6 2236.4 1427.56 2238.84 1415.89" stroke="#86919C" stroke-width="13.75" stroke-miterlimit="8" fill="none" fill-rule="evenodd"/><path d="M0 0 0.000360892 71.1055" stroke="#86919C" stroke-width="13.75" stroke-miterlimit="8" fill="none" fill-rule="evenodd" transform="matrix(1 0 0 -1 2238 1439.11)"/><path d="M0 0 0.000360892 71.1055" stroke="#86919C" stroke-width="13.75" stroke-miterlimit="8" fill="none" fill-rule="evenodd" transform="matrix(1 0 0 -1 2407 1440.11)"/><path d="M2797.77 1163.72C2839.96 1146.41 2888.2 1166.59 2905.51 1208.78 2922.82 1250.97 2902.64 1299.21 2860.45 1316.52 2840.19 1324.83 2817.45 1324.75 2797.25 1316.3Z" fill="#86919C" fill-rule="evenodd"/><path d="M2828.12 1157.34C2873.84 1147.38 2918.97 1176.38 2928.92 1222.1 2938.88 1267.82 2909.88 1312.95 2864.16 1322.9 2852.52 1325.44 2840.47 1325.49 2828.8 1323.05" stroke="#86919C" stroke-width="13.75" stroke-miterlimit="8" fill="none" fill-rule="evenodd"/><path d="M0 0 0.000360892 71.1055" stroke="#86919C" stroke-width="13.75" stroke-miterlimit="8" fill="none" fill-rule="evenodd" transform="matrix(-1.83697e-16 -1 -1 1.83697e-16 2852.11 1324)"/><path d="M0 0 0.000360892 71.1055" stroke="#86919C" stroke-width="13.75" stroke-miterlimit="8" fill="none" fill-rule="evenodd" transform="matrix(-1.83697e-16 -1 -1 1.83697e-16 2853.11 1155)"/><path d="M2245.61 1090.15C2228.3 1047.95 2248.47 999.716 2290.67 982.407 2332.86 965.098 2381.1 985.271 2398.41 1027.47 2406.72 1047.73 2406.64 1070.46 2398.19 1090.67Z" fill="#86919C" fill-rule="evenodd"/><path d="M2239.23 1059.79C2229.27 1014.07 2258.27 968.942 2303.99 958.989 2349.71 949.036 2394.84 978.03 2404.79 1023.75 2407.33 1035.4 2407.38 1047.44 2404.94 1059.11" stroke="#86919C" stroke-width="13.75" stroke-miterlimit="8" fill="none" fill-rule="evenodd"/><path d="M0 0 0.000360892 71.1055" stroke="#86919C" stroke-width="13.75" stroke-miterlimit="8" fill="none" fill-rule="evenodd" transform="matrix(-1 1.22465e-16 1.22465e-16 1 2406 1036)"/><path d="M0 0 0.000360892 71.1055" stroke="#86919C" stroke-width="13.75" stroke-miterlimit="8" fill="none" fill-rule="evenodd" transform="matrix(-1 1.22465e-16 1.22465e-16 1 2237 1035)"/><path d="M2129.18 1384.85C2146.49 1427.05 2126.32 1475.28 2084.12 1492.59 2041.93 1509.9 1993.69 1489.73 1976.38 1447.53 1968.07 1427.27 1968.15 1404.54 1976.6 1384.33Z" fill="#86919C" fill-rule="evenodd"/><path d="M2135.56 1415.21C2145.52 1460.93 2116.52 1506.06 2070.8 1516.01 2025.08 1525.96 1979.95 1496.97 1970 1451.25 1967.46 1439.6 1967.41 1427.56 1969.85 1415.89" stroke="#86919C" stroke-width="13.75" stroke-miterlimit="8" fill="none" fill-rule="evenodd"/><path d="M0 0 0.000360892 71.1055" stroke="#86919C" stroke-width="13.75" stroke-miterlimit="8" fill="none" fill-rule="evenodd" transform="matrix(1 0 0 -1 1969 1439.11)"/><path d="M0 0 0.000360892 71.1055" stroke="#86919C" stroke-width="13.75" stroke-miterlimit="8" fill="none" fill-rule="evenodd" transform="matrix(1 0 0 -1 2138 1440.11)"/><path d="M1976.63 1090.15C1959.32 1047.95 1979.49 999.716 2021.68 982.407 2063.88 965.098 2112.12 985.271 2129.42 1027.47 2137.74 1047.73 2137.66 1070.46 2129.21 1090.67Z" fill="#86919C" fill-rule="evenodd"/><path d="M1970.24 1059.79C1960.29 1014.07 1989.28 968.942 2035 958.989 2080.72 949.036 2125.85 978.03 2135.81 1023.75 2138.34 1035.4 2138.39 1047.44 2135.95 1059.11" stroke="#86919C" stroke-width="13.75" stroke-miterlimit="8" fill="none" fill-rule="evenodd"/><path d="M0 0 0.000360892 71.1055" stroke="#86919C" stroke-width="13.75" stroke-miterlimit="8" fill="none" fill-rule="evenodd" transform="matrix(-1 1.22465e-16 1.22465e-16 1 2137 1036)"/><path d="M0 0 0.000360892 71.1055" stroke="#86919C" stroke-width="13.75" stroke-miterlimit="8" fill="none" fill-rule="evenodd" transform="matrix(-1 1.22465e-16 1.22465e-16 1 1968 1035)"/><path d="M2664.44 1384.85C2681.75 1427.05 2661.57 1475.28 2619.38 1492.59 2577.18 1509.9 2528.95 1489.73 2511.64 1447.53 2503.33 1427.27 2503.4 1404.54 2511.85 1384.33Z" fill="#86919C" fill-rule="evenodd"/><path d="M2670.82 1415.21C2680.77 1460.93 2651.78 1506.06 2606.06 1516.01 2560.34 1525.96 2515.21 1496.97 2505.25 1451.25 2502.72 1439.6 2502.67 1427.56 2505.11 1415.89" stroke="#86919C" stroke-width="13.75" stroke-miterlimit="8" fill="none" fill-rule="evenodd"/><path d="M0 0 0.000360892 71.1055" stroke="#86919C" stroke-width="13.75" stroke-miterlimit="8" fill="none" fill-rule="evenodd" transform="matrix(1 0 0 -1 2504 1439.11)"/><path d="M0 0 0.000360892 71.1055" stroke="#86919C" stroke-width="13.75" stroke-miterlimit="8" fill="none" fill-rule="evenodd" transform="matrix(1 0 0 -1 2673 1440.11)"/><path d="M2511.88 1090.15C2494.57 1047.95 2514.75 999.716 2556.94 982.407 2599.14 965.098 2647.37 985.271 2664.68 1027.47 2672.99 1047.73 2672.92 1070.46 2664.47 1090.67Z" fill="#86919C" fill-rule="evenodd"/><path d="M2505.5 1059.79C2495.55 1014.07 2524.54 968.942 2570.26 958.989 2615.98 949.036 2661.11 978.03 2671.06 1023.75 2673.6 1035.4 2673.65 1047.44 2671.21 1059.11" stroke="#86919C" stroke-width="13.75" stroke-miterlimit="8" fill="none" fill-rule="evenodd"/><path d="M0 0 0.000360892 71.1055" stroke="#86919C" stroke-width="13.75" stroke-miterlimit="8" fill="none" fill-rule="evenodd" transform="matrix(-1 1.22465e-16 1.22465e-16 1 2672 1036)"/><path d="M0 0 0.000360892 71.1055" stroke="#86919C" stroke-width="13.75" stroke-miterlimit="8" fill="none" fill-rule="evenodd" transform="matrix(-1 1.22465e-16 1.22465e-16 1 2503 1035)"/></g></svg>