<svg width="983" height="799" xmlns="http://www.w3.org/2000/svg" xmlns:xlink="http://www.w3.org/1999/xlink" overflow="hidden"><defs><clipPath id="clip0"><rect x="3300" y="1347" width="983" height="799"/></clipPath></defs><g clip-path="url(#clip0)" transform="translate(-3300 -1347)"><path d="M3684.5 1406.5 4058.5 1588.25 4058.5 1951.75 3684.5 2133.5 3310.5 1951.75 3310.5 1588.25Z" stroke="#000000" stroke-width="20.625" stroke-miterlimit="8" fill="#FFFFFF" fill-rule="evenodd"/><path d="M3684.5 1406.5 3684.5 1799.62" stroke="#000000" stroke-width="20.625" stroke-miterlimit="8" fill="none" fill-rule="evenodd"/><path d="M3689.5 1787.5 4058.33 1951.54" stroke="#000000" stroke-width="20.625" stroke-miterlimit="8" fill="none" fill-rule="evenodd"/><path d="M0 0 368.831 164.04" stroke="#000000" stroke-width="20.625" stroke-miterlimit="8" fill="none" fill-rule="evenodd" transform="matrix(-1 0 0 1 3679.33 1787.5)"/><path d="M3811.72 1651 3915 1687.18 3915 1881 3810 1836.21C3810.57 1774.47 3811.15 1712.74 3811.72 1651Z" fill-rule="evenodd"/><path d="M1.54083 0 94.0002 38.2245 94.0002 243 0 195.674C0.513501 130.45 1.02733 65.2246 1.54083 0Z" fill-rule="evenodd" transform="matrix(-1 0 0 1 3477 1593)"/><path d="M1.54082 0 93.9998 38.2245 93.9998 243 0 195.674C0.513499 130.45 1.02732 65.2246 1.54082 0Z" fill-rule="evenodd" transform="matrix(-1 0 0 1 3626 1536)"/><path d="M0 0 368.831 164.04" stroke="#000000" stroke-width="10.3125" stroke-miterlimit="8" fill="none" fill-rule="evenodd" transform="matrix(-1 0 0 1 3746.83 1822)"/><path d="M0 0 368.831 164.04" stroke="#000000" stroke-width="10.3125" stroke-miterlimit="8" fill="none" fill-rule="evenodd" transform="matrix(-1 0 0 1 3818.83 1851)"/><path d="M0 0 368.831 164.04" stroke="#000000" stroke-width="10.3125" stroke-miterlimit="8" fill="none" fill-rule="evenodd" transform="matrix(-1 0 0 1 3891.83 1886)"/><path d="M0 0 368.831 164.04" stroke="#000000" stroke-width="10.3125" stroke-miterlimit="8" fill="none" fill-rule="evenodd" transform="matrix(-1 0 0 1 3974.83 1922)"/><path d="M4231.86 1350.84C4235.48 1346.41 4242.01 1345.75 4246.45 1349.37L4278.57 1375.59C4283.01 1379.21 4283.67 1385.74 4280.05 1390.18L4167.71 1527.81C4164.08 1532.25 4157.55 1532.91 4153.12 1529.29L4120.99 1503.07C4116.56 1499.45 4115.9 1492.92 4119.52 1488.48Z" fill="#09A4FB" fill-rule="evenodd"/><path d="M4161.46 1533.63 4112.01 1546.96 4115.16 1495.85Z" fill="#09A4FB" fill-rule="evenodd"/></g></svg>