<svg width="979" height="782" xmlns="http://www.w3.org/2000/svg" xmlns:xlink="http://www.w3.org/1999/xlink" overflow="hidden"><defs><clipPath id="clip0"><rect x="1675" y="1411" width="979" height="782"/></clipPath></defs><g clip-path="url(#clip0)" transform="translate(-1675 -1411)"><path d="M2059.5 1452.5 2433.5 1634.5 2433.5 1998.5 2059.5 2180.5 1685.5 1998.5 1685.5 1634.5Z" stroke="#000000" stroke-width="20.625" stroke-miterlimit="8" fill="#FFFFFF" fill-rule="evenodd"/><path d="M2059.5 1452.5 2059.5 1845.62" stroke="#000000" stroke-width="20.625" stroke-miterlimit="8" fill="none" fill-rule="evenodd"/><path d="M2064.5 1834.5 2433.33 1998.54" stroke="#000000" stroke-width="20.625" stroke-miterlimit="8" fill="none" fill-rule="evenodd"/><path d="M0 0 368.831 164.04" stroke="#000000" stroke-width="20.625" stroke-miterlimit="8" fill="none" fill-rule="evenodd" transform="matrix(-1 0 0 1 2054.33 1834.5)"/><path d="M2186.72 1698 2290 1734.02 2290 1927 2185 1882.4C2185.57 1820.93 2186.15 1759.47 2186.72 1698Z" fill-rule="evenodd"/><path d="M1.54083 0 94.0002 38.2245 94.0002 243 0 195.674C0.513501 130.45 1.02733 65.2246 1.54083 0Z" fill-rule="evenodd" transform="matrix(-1 0 0 1 1851 1640)"/><path d="M1.54082 0 93.9998 38.2245 93.9998 243 0 195.674C0.513499 130.45 1.02732 65.2246 1.54082 0Z" fill-rule="evenodd" transform="matrix(-1 0 0 1 2000 1582)"/><path d="M0 0 368.831 164.04" stroke="#000000" stroke-width="10.3125" stroke-miterlimit="8" fill="none" fill-rule="evenodd" transform="matrix(-1 0 0 1 2121.83 1869)"/><path d="M0 0 368.831 164.04" stroke="#000000" stroke-width="10.3125" stroke-miterlimit="8" fill="none" fill-rule="evenodd" transform="matrix(-1 0 0 1 2192.83 1897)"/><path d="M0 0 368.831 164.04" stroke="#000000" stroke-width="10.3125" stroke-miterlimit="8" fill="none" fill-rule="evenodd" transform="matrix(-1 0 0 1 2265.83 1933)"/><path d="M0 0 368.831 164.04" stroke="#000000" stroke-width="10.3125" stroke-miterlimit="8" fill="none" fill-rule="evenodd" transform="matrix(-1 0 0 1 2349.83 1969)"/><path d="M2426 1501.79 2516.79 1501.79 2516.79 1411 2563.21 1411 2563.21 1501.79 2654 1501.79 2654 1549.21 2563.21 1549.21 2563.21 1640 2516.79 1640 2516.79 1549.21 2426 1549.21Z" fill="#09A4FB" fill-rule="evenodd"/></g></svg>